PathFileType	4	(X/Y/Z)	OpenSim_Sub02_EMGStiffKnee_Accel.trc
DataRate	CameraRate	NumFrames	NumMarkers	Units	OrigDataRate	OrigDataStartFrame	OrigNumFrames
100	100	27	8	m	100	4932	7890
Frame#	Time	torso_imu_offset_imu	pelvis_imu_offset_imu	tibia_r_imu_offset_imu	femur_r_imu_offset_imu	tibia_l_imu_offset_imu	femur_l_imu_offset_imu	toes_r_imu_offset_imu	toes_l_imu_offset_imu
				X1	Y1	Z1	X2	Y2	Z2	X3	Y3	Z3	X4	Y4	Z4	X5	Y5	Z5	X6	Y6	Z6	X7	Y7	Z7	X8		Y8	Z8	

4932	49.31000000	9.48478853	0.18377950	6.74920602	10.36641461	-2.18838773	2.80997966	8.91086335	4.25922598	-0.42528465	8.19597241	-8.10877811	6.63860337	11.85407087	-0.05329445	0.40667634	9.37327688	0.84582824	-2.87585019	17.65000621	1.46645804	-21.57397330	3.12261050	0.40705703	12.81149758
4933	49.32000000	10.11944036	0.17487554	7.03240662	11.57545615	-1.81066728	4.66469860	11.94730482	2.83264896	1.10033027	9.07667737	-5.91788131	6.41333685	12.24530300	0.32534388	0.72070206	10.16437803	0.48971698	-3.23404139	2.34613955	10.95268062	20.21884427	2.68744883	0.57005065	13.35725545
4934	49.33000000	11.25963089	0.18398009	7.34749184	13.77536950	-0.20112150	6.50078326	19.87453031	-2.63182477	3.41017490	12.55179310	-3.74006850	4.01679897	12.95759659	0.96534255	0.75086565	11.03378434	0.13558071	-3.49661086	11.78296746	-4.67308574	33.71877284	2.46227118	1.05319707	13.77778847
4935	49.34000000	12.92729594	-0.15975738	7.79330720	15.82909064	2.26454405	5.86686121	25.89460171	-6.03193340	6.25569090	18.09005624	-3.57368039	-1.72331859	14.08755462	2.12762220	0.72265226	11.41821054	-0.72629935	-3.34427849	25.30119213	-11.78677489	7.37714765	3.12415493	1.17255234	13.72334005
4936	49.35000000	14.20734909	-0.92740695	7.89094385	15.41341782	3.16789505	5.13709050	22.81024989	-3.34029901	5.47705616	18.71000778	-4.51091020	-5.28513786	14.91908171	2.96030780	1.06609948	11.65288902	-2.13234859	-3.16317633	21.72923511	5.59411116	21.35711154	3.54796254	1.37515138	13.92917421
4937	49.36000000	14.15415830	-1.63952654	7.73285612	13.15536777	1.85324328	5.23086706	14.38307413	-1.17763547	0.75737745	15.91351559	-5.17333703	-1.41111853	15.11609431	2.65474027	1.01802382	12.09514668	-3.53003674	-2.88615307	12.31076055	-2.47396715	8.84820555	2.68370748	2.39057679	14.34552402
4938	49.37000000	13.24885395	-1.87684271	7.71094461	11.77857317	-0.69226819	5.24413268	6.61568109	0.62115010	1.78759771	12.99079695	-4.52302848	3.56204565	14.91080823	1.97848312	1.46758115	12.45164643	-4.00486330	-2.27133908	5.68393078	10.00848518	12.04610780	2.07709463	3.19846869	14.34684533
4939	49.38000000	12.82007335	-1.61130438	7.91389394	11.70879232	-3.54348969	5.33375778	2.10310909	3.55182085	3.71281308	8.15947569	-2.59416797	4.95411598	14.21329227	1.21730146	2.50780213	12.81827554	-3.96588189	-0.95400341	6.19183585	5.31252814	9.02219850	3.07461297	2.90374577	14.09510039
4940	49.39000000	13.36341060	-1.34710273	7.84917209	12.29365929	-4.64870006	5.57241415	1.60486112	7.76076163	2.65731751	5.09370028	-0.86946038	4.37419981	13.51089489	-0.05405234	3.00664711	12.68144755	-3.48889713	0.64186635	5.50623275	-2.80419724	9.97063025	2.88825535	1.17425020	14.28073486
4941	49.40000000	14.04276928	-1.49291862	7.62965982	12.91588644	-4.15700147	6.42260065	1.82444598	12.95837496	-1.78771434	4.51348930	0.35738760	2.15211548	13.32706450	-1.56132920	2.28574929	12.74751605	-3.17334602	1.49871854	4.61969051	0.92525654	9.63009517	2.54990992	1.45217282	14.07847667
4942	49.41000000	13.88899877	-1.99467599	7.12920516	12.52217033	-3.15709367	6.90289310	4.10252678	16.11727746	-3.80628810	5.40781045	1.47891265	1.04232966	13.58437668	-2.78904087	0.84437312	12.64942813	-3.49294496	1.37884588	5.89257517	3.86699630	9.48543899	3.68416160	0.91602542	13.25094479
4943	49.42000000	12.84739699	-2.35056245	6.42429987	11.56967516	-1.93180144	6.63579173	8.94937941	15.80254115	-0.36369045	7.54152613	1.50111848	0.57301618	13.55527567	-3.18578867	1.00768618	11.60659335	-3.92128697	0.92069476	5.75365274	1.33962675	9.35141365	4.73876401	3.70938516	13.50246967
4944	49.43000000	11.59876226	-2.25491388	5.96895076	10.82468052	-0.34578126	6.48000445	10.96802834	13.81618591	3.72379114	11.09030958	0.40436471	-0.21410817	12.63019180	-2.68024536	2.57895492	10.53258220	-4.19472040	0.23839993	6.11016667	1.95290848	9.09765131	8.26337230	5.97519223	13.22255772
4945	49.44000000	10.57351969	-2.19556301	5.57511241	10.20440523	0.81581416	6.49921220	10.39065972	10.33234094	5.89118936	14.03257137	-0.91998738	-0.74443683	10.51274971	-1.97840789	4.30144143	10.28657438	-4.20165679	-0.17336493	5.04085635	0.95631328	8.94836312	10.01165850	5.99970824	13.59113369
4946	49.45000000	9.81965159	-2.45156204	5.12598680	9.48994077	1.65225657	6.35147480	11.27433440	5.55110178	4.68761916	14.76994348	-1.67475357	-1.21289405	8.00184360	-2.10310971	5.74859899	10.38791909	-3.94996885	0.45663375	4.57669460	1.19897479	9.44681310	15.50733104	0.99437058	13.99672076
4947	49.46000000	9.43053282	-2.79371984	4.55285286	8.50509441	2.11122738	6.24550975	12.77784000	2.80064075	2.51168174	14.54462645	-2.00799263	-1.32379639	6.19435505	-3.44445079	6.81091691	10.20216997	-3.59671822	1.52913183	4.13270752	0.91234356	9.47574040	18.33028113	-0.68680847	16.47314190
4948	49.47000000	9.25277386	-2.94385854	4.26502897	7.59177089	2.18540552	6.25730270	11.97995972	4.31619471	1.59666685	13.04165732	-2.58910340	-1.36811128	5.14736648	-7.20541009	6.95385316	10.51059467	-3.31234308	2.13771084	3.49449622	0.59864557	9.56319926	10.87225052	7.96413798	22.10601668
4949	49.48000000	9.16303498	-2.64077504	4.23095687	7.33997359	2.06870286	6.19564867	10.45349590	5.65477765	0.76534772	10.43286335	-3.50785461	-1.25031922	5.13777470	-10.96261308	4.07517453	11.88197549	-3.30626052	2.49897662	3.84132333	0.71834739	9.72636684	0.33688432	13.29920966	21.32251654
4950	49.49000000	9.33685182	-2.11975226	4.16345272	7.63028088	1.70412108	5.96171164	10.49964300	3.24260617	1.19797157	8.92343433	-3.94641679	-0.63827304	5.31670962	-10.86161446	-0.52797711	12.94760083	-3.33948755	2.63712999	4.53959301	0.45134162	9.26944920	-2.68036020	9.12008720	15.36674658
4951	49.50000000	9.68820808	-1.64763478	4.22604253	8.10864740	1.36764275	5.65648558	10.32369082	-1.44182478	1.96251550	8.12920163	-3.45086525	-0.04702110	4.45482056	-8.68385385	-1.61568044	12.30567392	-3.36869941	2.07689653	4.59335120	0.81359506	9.15951339	1.02758345	4.12433923	16.04627823
4952	49.51000000	9.85027364	-1.31466703	4.35532057	8.54944618	1.08714967	5.38986869	8.84522313	-3.26424343	-0.32361436	7.85157692	-2.26650715	0.42946211	2.26806243	-8.09649290	0.80190868	10.60764024	-3.70939974	1.45953634	5.00278835	0.80745976	9.07934447	-2.75076669	3.20282735	11.87773595
4953	49.52000000	9.63230656	-1.12439735	4.45242909	8.65035574	0.68331387	5.26716670	8.51971204	-0.76452022	-0.65748078	7.92195519	-1.05716504	0.74102820	-0.88823356	-8.22507886	2.99177499	9.28137187	-4.09510242	1.04586208	5.16326237	0.44356119	8.93644163	-1.77872282	3.44288267	11.96393074
4954	49.53000000	9.29786883	-1.08066163	4.64506643	8.45418413	0.35686933	5.27127356	9.53694020	2.83547338	0.68698775	8.23017717	-0.47166345	0.58138007	-2.87434744	-7.26569730	4.30155703	8.81468281	-3.56105080	0.86703651	4.60132092	-0.06667379	8.94737425	-2.20040714	3.91322700	10.99552030
4955	49.54000000	9.09997442	-1.11885842	4.83989221	8.27338743	0.23674508	5.16325920	10.14098811	3.63797795	0.79681479	8.65113213	-0.63726057	-0.14563664	-2.47995129	-5.41814903	4.52425459	8.97011030	-2.90784597	0.99789701	4.54427426	0.13750489	9.04440318	-1.97859074	4.20053315	10.55872082
4956	49.55000000	8.96700952	-1.13931387	4.89410065	7.99064728	0.27231246	5.13391337	10.95714879	3.11185906	1.39452994	9.22314582	-0.87994127	-0.58087041	-0.98796362	-4.20753172	3.82914966	9.25186521	-2.68124713	1.09870425	4.76446936	0.77490675	9.13212552	-2.16919959	4.09018546	10.12781276
4957	49.56000000	8.84528457	-1.20269529	4.95498317	7.78614333	0.52261017	5.04970850	11.53781567	3.13580784	1.49228710	9.87730216	-0.98850686	-0.35546282	0.46173740	-4.34009865	3.33750436	9.37102361	-2.69958248	0.89656107	4.84580650	0.75552092	9.05046072	-1.63838893	3.62889342	10.34687523
4958	49.57000000	8.69706237	-1.24897396	5.00206512	7.57142515	0.95669511	5.01552739	10.65113056	2.74170237	1.69229972	9.99087373	-1.48564700	-0.20229594	1.69205931	-4.76927966	3.52981522	9.16535542	-2.95714748	0.62820771	5.07626123	0.76264973	8.96043191	-0.79830572	3.56027902	10.87731293
